<svg width="55" height="55" viewBox="0 0 55 55" fill="none" xmlns="http://www.w3.org/2000/svg">
<path d="M4.63545 48H13.1182V27.3992L1 18.3105V44.3646C1 46.3762 2.62989 48 4.63545 48Z" fill="#4285F4"/>
<path d="M42.2031 48H50.6858C52.6975 48 54.3213 46.3702 54.3213 44.3646V18.3105L42.2031 27.3992" fill="#34A853"/>
<path d="M42.2031 11.6458V27.3994L54.3213 18.3108V13.4635C54.3213 8.96765 49.1892 6.40466 45.5962 9.10095" fill="#FBBC04"/>
<path d="M13.1172 27.3991V11.6455L27.659 22.5519L42.2008 11.6455V27.3991L27.659 38.3055" fill="#EA4335"/>
<path d="M1 13.4635V18.3108L13.1182 27.3994V11.6458L9.72508 9.10095C6.12598 6.40466 1 8.96765 1 13.4635" fill="#C5221F"/>
</svg>
