<svg width="47" height="47" viewBox="0 0 47 47" fill="none" xmlns="http://www.w3.org/2000/svg">
<path d="M0.890625 46.8405L4.1753 34.6381C1.52629 29.8847 0.684676 24.3378 1.80489 19.0154C2.9251 13.693 5.932 8.95198 10.2738 5.66242C14.6156 2.37287 20.0011 0.755404 25.4421 1.10683C30.883 1.45825 36.0144 3.75499 39.8946 7.5756C43.7749 11.3962 46.1437 16.4844 46.5664 21.9065C46.989 27.3286 45.4373 32.7208 42.1958 37.0938C38.9543 41.4668 34.2405 44.5271 28.9195 45.7133C23.5984 46.8994 18.027 46.1318 13.2276 43.5513L0.890625 46.8405ZM13.8224 38.985L14.5854 39.4365C18.0617 41.4918 22.122 42.3423 26.1336 41.8555C30.1451 41.3687 33.8825 39.5719 36.7634 36.7452C39.6443 33.9185 41.5068 30.2206 42.0607 26.2279C42.6146 22.2351 41.8288 18.1717 39.8257 14.6709C37.8226 11.1701 34.7148 8.4285 30.9865 6.87344C27.2582 5.31838 23.119 5.03716 19.2137 6.0736C15.3085 7.11004 11.8567 9.40593 9.39618 12.6035C6.93568 15.801 5.60473 19.7206 5.61073 23.7514C5.60746 27.0937 6.53414 30.3712 8.28761 33.2192L8.76609 34.0061L6.92977 40.8167L13.8224 38.985Z" fill="#00D95F"/>
<path fill-rule="evenodd" clip-rule="evenodd" d="M32.3404 26.8847C31.8931 26.5249 31.3694 26.2716 30.8091 26.1442C30.2489 26.0168 29.6669 26.0186 29.1074 26.1495C28.2669 26.4977 27.7237 27.8134 27.1806 28.4713C27.0661 28.629 26.8978 28.7396 26.7073 28.7823C26.5168 28.8251 26.3173 28.797 26.1461 28.7034C23.0687 27.5012 20.4893 25.2965 18.8267 22.4475C18.6848 22.2697 18.6177 22.044 18.6394 21.8178C18.6612 21.5916 18.77 21.3827 18.943 21.235C19.5488 20.6368 19.9936 19.8959 20.2362 19.0809C20.2901 18.1818 20.0836 17.2863 19.6414 16.5011C19.2995 15.4002 18.6488 14.42 17.7663 13.6762C17.3111 13.472 16.8063 13.4036 16.313 13.4791C15.8197 13.5546 15.3588 13.7709 14.9859 14.1019C14.3386 14.6589 13.8249 15.3537 13.4825 16.135C13.14 16.9163 12.9777 17.7643 13.0074 18.6165C13.0093 19.0951 13.0702 19.5716 13.1884 20.0354C13.4887 21.1497 13.9505 22.2144 14.5592 23.1956C14.9983 23.9473 15.4775 24.6749 15.9946 25.3755C17.6751 27.6767 19.7876 29.6305 22.2148 31.1284C23.4328 31.8897 24.7345 32.5086 26.0943 32.973C27.5069 33.6117 29.0665 33.8568 30.6075 33.6824C31.4855 33.5499 32.3174 33.2041 33.03 32.6755C33.7426 32.1469 34.314 31.4518 34.694 30.6512C34.9172 30.1675 34.985 29.6269 34.8879 29.1033C34.6552 28.0327 33.2197 27.4007 32.3404 26.8847Z" fill="#00D95F"/>
</svg>
